<svg xmlns="http://www.w3.org/2000/svg" width="20" height="26" viewBox="0 0 20 26">
  <path d="M16.333 0c-1.851 0-3.383 1.364-3.628 3.127H.506c-.276 0-.5.22-.5.493L0 25.507c0 .13.052.256.146.349.094.092.221.144.354.144h15.833C18.355 26 20 24.376 20 22.38V3.62C20 1.624 18.355 0 16.333 0zm0 25.013H1l.006-20.9h11.66v2.14h-9.01c-.276 0-.5.221-.5.494 0 .272.224.493.5.493h9.01v2.335h-9.01c-.276 0-.5.221-.5.494 0 .272.224.493.5.493h9.01v2.335h-9.01c-.276 0-.5.221-.5.494 0 .272.224.493.5.493h9.01v2.335h-9.01c-.276 0-.5.221-.5.494 0 .272.224.493.5.493h9.01v2.335h-9.01c-.276 0-.5.222-.5.494s.224.493.5.493h9.01v1.852c0 .272.225.493.5.493.277 0 .5-.22.5-.493 0-1.452 1.197-2.633 2.667-2.633 1.471 0 2.667 1.18 2.667 2.633 0 1.452-1.196 2.633-2.667 2.633zm0-6.253c-1.05 0-1.997.441-2.666 1.143V3.62c0-1.452 1.196-2.633 2.666-2.633C17.804.987 19 2.168 19 3.62v16.283c-.669-.702-1.615-1.143-2.667-1.143z"/>
</svg>
