<svg id="Layer_1" enable-background="new 0 0 512 512" height="512" viewBox="0 0 512 512" width="512" xmlns="http://www.w3.org/2000/svg"><g><path d="m121.5 0c-66.995 0-121.5 54.505-121.5 121.5s54.505 121.5 121.5 121.5 121.5-54.505 121.5-121.5-54.505-121.5-121.5-121.5zm0 213c-50.453 0-91.5-41.047-91.5-91.5s41.047-91.5 91.5-91.5 91.5 41.047 91.5 91.5-41.047 91.5-91.5 91.5z"/><ellipse cx="90.5" cy="92" rx="15" ry="15" transform="matrix(.028 -1 1 .028 -3.975 179.912)"/><circle cx="152.5" cy="92" r="15"/><path d="m162.966 136.692c-6.841-4.677-16.173-2.921-20.849 3.917-4.663 6.82-12.378 10.892-20.64 10.892-8.35 0-16.112-4.14-20.764-11.075-4.614-6.879-13.932-8.716-20.813-4.102-6.88 4.614-8.716 13.933-4.102 20.813 10.232 15.256 27.309 24.364 45.678 24.364 18.174 0 35.148-8.957 45.405-23.96 4.677-6.839 2.924-16.173-3.915-20.849z"/><path d="m390.5 243c66.995 0 121.5-54.505 121.5-121.5s-54.505-121.5-121.5-121.5-121.5 54.505-121.5 121.5 54.505 121.5 121.5 121.5zm0-213c50.453 0 91.5 41.047 91.5 91.5s-41.047 91.5-91.5 91.5-91.5-41.047-91.5-91.5 41.047-91.5 91.5-91.5z"/><ellipse cx="359.5" cy="92" rx="15" ry="15" transform="matrix(.066 -.998 .998 .066 243.894 444.618)"/><circle cx="421.5" cy="92" r="15"/><path d="m121.5 269c-66.995 0-121.5 54.505-121.5 121.5s54.505 121.5 121.5 121.5 121.5-54.505 121.5-121.5-54.505-121.5-121.5-121.5zm0 213c-50.453 0-91.5-41.047-91.5-91.5s41.047-91.5 91.5-91.5 91.5 41.047 91.5 91.5-41.047 91.5-91.5 91.5z"/><ellipse cx="90.5" cy="361" rx="15" ry="15" transform="matrix(.031 -1 1 .031 -273.148 440.191)"/><circle cx="152.5" cy="361" r="15"/><path d="m121.478 402.78c-18.37 0-35.446 9.108-45.678 24.364-4.615 6.88-2.778 16.198 4.102 20.813 2.565 1.721 5.469 2.544 8.342 2.544 4.832 0 9.577-2.331 12.471-6.646 4.652-6.935 12.414-11.075 20.764-11.075 8.262 0 15.978 4.071 20.64 10.891 4.676 6.839 14.008 8.594 20.848 3.917 6.839-4.675 8.593-14.01 3.917-20.848-10.258-15.003-27.232-23.96-45.406-23.96z"/><path d="m390.5 269c-66.995 0-121.5 54.505-121.5 121.5s54.505 121.5 121.5 121.5 121.5-54.505 121.5-121.5-54.505-121.5-121.5-121.5zm0 213c-50.453 0-91.5-41.047-91.5-91.5s41.047-91.5 91.5-91.5 91.5 41.047 91.5 91.5-41.047 91.5-91.5 91.5z"/><path d="m431.966 405.692c-6.84-4.676-16.173-2.921-20.849 3.917-4.662 6.82-12.378 10.892-20.64 10.892-8.351 0-16.112-4.14-20.763-11.075-4.615-6.881-13.933-8.717-20.813-4.103s-8.717 13.933-4.102 20.813c10.231 15.256 27.308 24.365 45.678 24.365 18.174 0 35.147-8.957 45.405-23.96 4.676-6.839 2.923-16.173-3.916-20.849z"/><path d="m358.998 171.001h63.004c8.284 0 15-6.716 15-15s-6.716-15-15-15h-63.004c-8.284 0-15 6.716-15 15s6.716 15 15 15z"/><path d="m362.965 379.065c4.803 0 9.521-2.302 12.423-6.575 4.654-6.854 2.871-16.182-3.982-20.836l-14.914-10.127c-6.854-4.654-16.182-2.871-20.836 3.982s-2.871 16.182 3.982 20.836l14.914 10.127c2.581 1.754 5.511 2.593 8.413 2.593z"/><path d="m424.509 341.527-14.914 10.127c-6.854 4.654-8.637 13.982-3.982 20.836 2.901 4.273 7.62 6.575 12.423 6.575 2.9 0 5.832-.84 8.413-2.592l14.914-10.127c6.854-4.654 8.637-13.982 3.982-20.836-4.654-6.854-13.981-8.637-20.836-3.983z"/></g></svg>