<svg xmlns="http://www.w3.org/2000/svg" width="50" height="50" viewBox="0 0 50 50">
  <g transform="translate(2 5)">
    <path d="M23 6.033C23 2.695 20.296 0 16.947 0c-3.349 0-6.052 2.695-6.052 6.033 0 3.338 2.703 6.032 6.052 6.032 3.35 0 6.053-2.694 6.053-6.032zm-9.684 0a3.61 3.61 0 0 1 3.631-3.62 3.61 3.61 0 0 1 3.632 3.62 3.61 3.61 0 0 1-3.632 3.62 3.61 3.61 0 0 1-3.631-3.62zM6.82 20.27L4.76 27.147c-.201.643.162 1.327.807 1.488.646.2 1.332-.161 1.493-.805l2.058-6.877a6.837 6.837 0 0 1 6.577-4.866h2.502c3.067 0 5.69 1.97 6.577 4.866l2.058 6.877a1.21 1.21 0 0 0 1.17.845c.122 0 .243 0 .364-.04.645-.201 1.008-.845.807-1.488l-2.058-6.877c-1.21-3.942-4.762-6.596-8.918-6.596h-2.502c-4.156 0-7.707 2.654-8.877 6.596z"/>
    <path d="M39.665 35.793c0-.683-.525-1.206-1.21-1.206h-4.762a3.78 3.78 0 0 0 .202-1.207 3.61 3.61 0 0 0-3.632-3.62h-5.649v-1.206c0-.683-.525-1.206-1.21-1.206-.686 0-1.211.523-1.211 1.206v1.207h-1.21c-.687 0-1.211.523-1.211 1.206 0 .684.524 1.207 1.21 1.207h9.281c.686 0 1.21.523 1.21 1.206 0 .684-.524 1.207-1.21 1.207H17.956a3.78 3.78 0 0 0 .202-1.207 3.61 3.61 0 0 0-3.632-3.62h-2.824v-1.206c0-.683-.525-1.206-1.21-1.206-.687 0-1.211.523-1.211 1.206v1.207H3.63A3.61 3.61 0 0 0 0 33.38 3.61 3.61 0 0 0 3.632 37h34.822c.646 0 1.21-.523 1.21-1.207zm-25.139-1.206H3.632c-.686 0-1.21-.523-1.21-1.207 0-.683.524-1.206 1.21-1.206h10.894c.686 0 1.21.523 1.21 1.206 0 .684-.524 1.207-1.21 1.207z"/>
    <ellipse cx="44.507" cy="35.793" rx="1.211" ry="1.207"/>
  </g>
</svg>
