<?xml version="1.0" encoding="iso-8859-1"?>
<!-- Generator: Adobe Illustrator 19.0.0, SVG Export Plug-In . SVG Version: 6.00 Build 0)  -->
<svg version="1.1" id="Capa_1" xmlns="http://www.w3.org/2000/svg" xmlns:xlink="http://www.w3.org/1999/xlink" x="0px" y="0px"
	 viewBox="0 0 512.005 512.005" style="enable-background:new 0 0 512.005 512.005;" xml:space="preserve">
<g>
	<g>
		<path d="M92.778,106.352c-3.448-2.293-8.104-1.357-10.398,2.091c-2.293,3.446-4.509,7.004-6.587,10.575
			c-2.085,3.579-0.872,8.17,2.708,10.254c1.187,0.691,2.485,1.02,3.766,1.02c2.582,0,5.096-1.336,6.489-3.729
			c1.929-3.313,3.985-6.615,6.113-9.813C97.163,113.301,96.227,108.646,92.778,106.352z"/>
	</g>
</g>
<g>
	<g>
		<path d="M76.195,133.728c-3.77-1.717-8.217-0.051-9.933,3.72c-1.716,3.77-3.338,7.639-4.822,11.501
			c-1.484,3.865,0.446,8.204,4.313,9.69c0.885,0.34,1.794,0.501,2.688,0.501c3.014,0,5.857-1.83,7.002-4.812
			c1.376-3.581,2.881-7.17,4.472-10.667C81.631,139.891,79.966,135.444,76.195,133.728z"/>
	</g>
</g>
<g>
	<g>
		<path d="M113.483,81.953c-3.043-2.812-7.787-2.623-10.598,0.419c-2.803,3.033-5.553,6.193-8.173,9.392
			c-2.625,3.204-2.156,7.929,1.048,10.554c1.395,1.142,3.077,1.698,4.749,1.698c2.17,0,4.324-0.937,5.806-2.747
			c2.433-2.97,4.985-5.903,7.587-8.718C116.713,89.509,116.526,84.764,113.483,81.953z"/>
	</g>
</g>
<g>
	<g>
		<path d="M64.191,163.406c-3.991-1.092-8.119,1.265-9.21,5.261c-1.086,3.98-2.067,8.054-2.914,12.105
			c-0.847,4.054,1.753,8.028,5.807,8.876c0.518,0.108,1.034,0.16,1.543,0.16c3.475,0,6.594-2.43,7.333-5.966
			c0.786-3.758,1.695-7.535,2.702-11.227C70.542,168.619,68.187,164.496,64.191,163.406z"/>
	</g>
</g>
<g>
	<g>
		<path d="M63.855,245.146c-0.423-3.808-0.738-7.682-0.934-11.514c-0.212-4.137-3.742-7.324-7.874-7.106
			c-4.136,0.212-7.318,3.738-7.106,7.874c0.212,4.128,0.55,8.301,1.006,12.403c0.426,3.835,3.674,6.672,7.445,6.672
			c0.277,0.001,0.556-0.015,0.838-0.046C61.347,252.972,64.313,249.263,63.855,245.146z"/>
	</g>
</g>
<g>
	<g>
		<path d="M69.687,275.356c-1.026-3.692-1.952-7.465-2.754-11.214c-0.866-4.05-4.849-6.635-8.902-5.766
			c-4.05,0.866-6.632,4.852-5.766,8.902c0.864,4.042,1.863,8.11,2.969,12.092c0.922,3.319,3.938,5.495,7.223,5.495
			c0.664,0.001,1.34-0.088,2.011-0.275C68.459,283.481,70.796,279.347,69.687,275.356z"/>
	</g>
</g>
<g>
	<g>
		<path d="M80.267,304.227c-1.603-3.481-3.119-7.051-4.505-10.612c-1.502-3.859-5.85-5.771-9.71-4.267
			c-3.86,1.502-5.771,5.85-4.268,9.71c1.495,3.84,3.129,7.69,4.857,11.443c1.265,2.747,3.98,4.365,6.817,4.365
			c1.049,0,2.116-0.222,3.132-0.689C80.354,312.444,81.999,307.989,80.267,304.227z"/>
	</g>
</g>
<g>
	<g>
		<path d="M57.096,194.599c-4.114-0.439-7.814,2.545-8.253,6.664c-0.437,4.104-0.757,8.278-0.95,12.407
			c-0.192,4.137,3.005,7.648,7.142,7.842c0.12,0.006,0.238,0.008,0.356,0.008c3.981,0,7.298-3.131,7.486-7.149
			c0.179-3.834,0.476-7.71,0.882-11.519C64.197,198.733,61.215,195.038,57.096,194.599z"/>
	</g>
</g>
<g>
	<g>
		<path d="M453.368,157.366c-1.315-3.918-2.766-7.849-4.314-11.682c-1.551-3.839-5.921-5.697-9.763-4.145
			c-3.84,1.551-5.696,5.922-4.145,9.763c1.435,3.554,2.781,7.199,3.999,10.832c1.052,3.137,3.975,5.118,7.11,5.118
			c0.79,0,1.595-0.126,2.385-0.391C452.568,165.545,454.684,161.294,453.368,157.366z"/>
	</g>
</g>
<g>
	<g>
		<path d="M440.332,126.86c-1.92-3.652-3.977-7.295-6.113-10.829c-2.143-3.545-6.753-4.682-10.299-2.538
			c-3.544,2.143-4.681,6.754-2.537,10.299c1.982,3.279,3.892,6.66,5.674,10.049c1.342,2.552,3.947,4.011,6.644,4.011
			c1.177,0,2.371-0.278,3.484-0.863C440.852,135.061,442.261,130.527,440.332,126.86z"/>
	</g>
</g>
<g>
	<g>
		<path d="M461.356,189.564c-0.669-4.074-1.472-8.185-2.387-12.219c-0.918-4.04-4.932-6.573-8.975-5.656
			c-4.039,0.917-6.571,4.934-5.655,8.973c0.849,3.742,1.594,7.555,2.215,11.333c0.604,3.676,3.784,6.286,7.392,6.286
			c0.403,0,0.813-0.033,1.225-0.1C459.258,197.51,462.027,193.652,461.356,189.564z"/>
	</g>
</g>
<g>
	<g>
		<path d="M422.617,98.838c-2.477-3.304-5.087-6.578-7.757-9.729c-2.678-3.16-7.41-3.553-10.571-0.874
			c-3.16,2.677-3.551,7.41-0.874,10.57c2.479,2.926,4.901,5.964,7.2,9.03c1.474,1.965,3.726,3.002,6.007,3.002
			c1.565,0,3.144-0.488,4.493-1.499C424.429,106.854,425.101,102.153,422.617,98.838z"/>
	</g>
</g>
<g>
	<g>
		<path d="M249.984,15.487c-4.135,0.115-8.315,0.355-12.423,0.713c-4.126,0.36-7.18,3.997-6.82,8.123
			c0.34,3.906,3.615,6.85,7.462,6.85c0.219,0,0.439-0.01,0.661-0.029c3.815-0.333,7.696-0.556,11.537-0.663
			c4.14-0.115,7.403-3.565,7.289-7.705C257.575,18.636,254.122,15.381,249.984,15.487z"/>
	</g>
</g>
<g>
	<g>
		<path d="M225.775,25.008c-0.769-4.07-4.688-6.745-8.761-5.979c-4.058,0.766-8.15,1.667-12.161,2.677
			c-4.017,1.012-6.453,5.088-5.441,9.105c0.859,3.401,3.914,5.669,7.269,5.669c0.606,0,1.223-0.074,1.837-0.229
			c3.72-0.938,7.514-1.772,11.278-2.482C223.866,33.001,226.543,29.078,225.775,25.008z"/>
	</g>
</g>
<g>
	<g>
		<path d="M283.09,17.167c-4.086-0.533-8.252-0.951-12.384-1.242c-4.146-0.29-7.717,2.824-8.008,6.956
			c-0.29,4.131,2.824,7.716,6.956,8.007c3.836,0.27,7.702,0.658,11.493,1.153c0.33,0.043,0.657,0.064,0.981,0.064
			c3.71,0,6.934-2.752,7.427-6.53C290.092,21.468,287.197,17.703,283.09,17.167z"/>
	</g>
</g>
<g>
	<g>
		<path d="M315.532,24.071c-3.959-1.181-8.007-2.257-12.033-3.199c-4.031-0.942-8.067,1.561-9.011,5.596
			c-0.943,4.033,1.562,8.067,5.595,9.01c3.734,0.874,7.489,1.872,11.16,2.967c0.716,0.213,1.438,0.315,2.147,0.315
			c3.23,0,6.213-2.104,7.184-5.358C321.759,29.433,319.501,25.255,315.532,24.071z"/>
	</g>
</g>
<g>
	<g>
		<path d="M346.477,36.082c-3.727-1.802-7.556-3.514-11.381-5.088c-3.831-1.575-8.215,0.251-9.79,4.081
			c-1.578,3.83,0.25,8.214,4.08,9.79c3.55,1.461,7.103,3.049,10.561,4.721c1.052,0.509,2.164,0.75,3.259,0.75
			c2.787,0,5.463-1.56,6.758-4.237C351.768,42.37,350.206,37.885,346.477,36.082z"/>
	</g>
</g>
<g>
	<g>
		<path d="M375.096,52.868c-3.39-2.37-6.896-4.668-10.419-6.831c-3.529-2.167-8.149-1.061-10.315,2.47s-1.06,8.149,2.47,10.316
			c3.271,2.007,6.523,4.139,9.669,6.338c1.309,0.915,2.808,1.354,4.291,1.354c2.366,0,4.694-1.117,6.153-3.203
			C379.319,59.917,378.491,55.241,375.096,52.868z"/>
	</g>
</g>
<g>
	<g>
		<path d="M421.61,337.065c-3.325-2.47-8.022-1.777-10.493,1.547c-2.289,3.082-4.701,6.133-7.167,9.069
			c-2.664,3.171-2.252,7.902,0.919,10.566c1.406,1.181,3.117,1.757,4.82,1.757c2.139,0,4.264-0.91,5.747-2.676
			c2.656-3.163,5.255-6.45,7.722-9.77C425.628,344.233,424.935,339.535,421.61,337.065z"/>
	</g>
</g>
<g>
	<g>
		<path d="M401.457,361.924c-2.892-2.965-7.639-3.026-10.606-0.131c-2.743,2.677-5.605,5.308-8.505,7.819
			c-3.132,2.711-3.472,7.448-0.761,10.579c1.483,1.713,3.572,2.591,5.673,2.591c1.74,0,3.488-0.602,4.906-1.83
			c3.125-2.706,6.207-5.539,9.163-8.423C404.291,369.636,404.349,364.888,401.457,361.924z"/>
	</g>
</g>
<g>
	<g>
		<path d="M377.638,383.282c-2.387-3.384-7.067-4.193-10.452-1.804c-3.131,2.21-6.37,4.353-9.626,6.371
			c-3.521,2.182-4.606,6.805-2.425,10.326c1.419,2.29,3.872,3.55,6.382,3.55c1.349,0,2.714-0.363,3.943-1.126
			c3.51-2.174,7-4.484,10.374-6.865C379.218,391.346,380.026,386.667,377.638,383.282z"/>
	</g>
</g>
<g>
	<g>
		<path d="M95.324,331.054c-2.134-3.179-4.202-6.466-6.146-9.772c-2.099-3.571-6.697-4.762-10.267-2.663
			c-3.571,2.1-4.763,6.696-2.663,10.267c2.094,3.562,4.322,7.104,6.622,10.529c1.447,2.156,3.818,3.32,6.233,3.32
			c1.438,0,2.891-0.413,4.174-1.274C96.718,339.153,97.634,334.493,95.324,331.054z"/>
	</g>
</g>
<g>
	<g>
		<path d="M437.571,309.318c-3.674-1.91-8.203-0.481-10.114,3.195c-1.772,3.409-3.67,6.804-5.639,10.092
			c-2.129,3.553-0.974,8.16,2.579,10.288c1.207,0.723,2.536,1.067,3.848,1.067c2.55,0,5.035-1.3,6.44-3.647
			c2.124-3.545,4.17-7.207,6.08-10.881C442.677,315.757,441.246,311.229,437.571,309.318z"/>
	</g>
</g>
<g>
	<g>
		<path d="M455.285,248.023c-4.095-0.655-7.937,2.134-8.589,6.224c-0.605,3.787-1.332,7.604-2.162,11.346
			c-0.896,4.044,1.654,8.049,5.698,8.946c0.547,0.121,1.093,0.179,1.631,0.179c3.439,0,6.54-2.38,7.315-5.878
			c0.895-4.033,1.679-8.147,2.33-12.228C462.162,252.521,459.375,248.676,455.285,248.023z"/>
	</g>
</g>
<g>
	<g>
		<path d="M464.12,222.603c-0.021-4.145-0.163-8.328-0.423-12.434c-0.263-4.133-3.797-7.268-7.961-7.01
			c-4.134,0.262-7.271,3.826-7.01,7.96c0.242,3.815,0.375,7.703,0.393,11.556c0.001,0.142,0.006,0.283,0.014,0.424
			c-0.009,0.152-0.014,0.306-0.014,0.461c0,3.851-0.114,7.737-0.34,11.551c-0.244,4.135,2.91,7.685,7.045,7.929
			c0.15,0.009,0.3,0.013,0.449,0.013c3.939,0,7.245-3.074,7.48-7.058c0.242-4.107,0.365-8.292,0.365-12.436
			c0-0.154-0.005-0.308-0.014-0.46C464.116,222.936,464.121,222.77,464.12,222.603z"/>
	</g>
</g>
<g>
	<g>
		<path d="M448.901,279.372c-3.93-1.297-8.175,0.837-9.474,4.77c-1.203,3.645-2.535,7.303-3.957,10.872
			c-1.534,3.848,0.343,8.21,4.19,9.744c0.91,0.363,1.85,0.535,2.774,0.535c2.979,0,5.799-1.788,6.969-4.726
			c1.534-3.848,2.97-7.791,4.268-11.721C454.97,284.913,452.835,280.671,448.901,279.372z"/>
	</g>
</g>
<g>
	<g>
		<path d="M400.685,73.967c-2.974-2.877-6.069-5.698-9.199-8.385c-3.145-2.699-7.88-2.337-10.576,0.805
			c-2.699,3.142-2.339,7.877,0.804,10.575c2.906,2.495,5.78,5.115,8.543,7.787c1.456,1.408,3.335,2.109,5.213,2.109
			c1.961,0,3.921-0.765,5.392-2.286C403.742,81.594,403.663,76.846,400.685,73.967z"/>
	</g>
</g>
<g>
	<g>
		<path d="M137.162,375.963c-3.022-2.356-6.017-4.837-8.9-7.375c-3.11-2.737-7.849-2.434-10.585,0.676
			c-2.736,3.109-2.434,7.849,0.676,10.585c3.106,2.733,6.332,5.407,9.588,7.944c1.37,1.068,2.994,1.585,4.605,1.585
			c2.232,0,4.442-0.993,5.92-2.89C141.013,383.223,140.429,378.51,137.162,375.963z"/>
	</g>
</g>
<g>
	<g>
		<path d="M162.876,392.906c-3.363-1.85-6.714-3.827-9.96-5.874c-3.504-2.209-8.135-1.162-10.345,2.341
			c-2.21,3.504-1.162,8.135,2.342,10.345c3.498,2.206,7.109,4.336,10.733,6.33c1.147,0.631,2.386,0.931,3.608,0.931
			c2.646,0,5.212-1.404,6.578-3.887C167.829,399.463,166.505,394.902,162.876,392.906z"/>
	</g>
</g>
<g>
	<g>
		<path d="M114.456,355.168c-2.616-2.807-5.18-5.728-7.62-8.682c-2.637-3.193-7.365-3.643-10.559-1.005
			c-3.193,2.638-3.643,7.366-1.005,10.559c2.629,3.183,5.391,6.329,8.209,9.354c1.478,1.585,3.48,2.387,5.489,2.387
			c1.831,0,3.666-0.667,5.111-2.013C117.112,362.944,117.28,358.199,114.456,355.168z"/>
	</g>
</g>
<g>
	<g>
		<path d="M414.518,143.45l-15.354-15.349c-2.304-2.303-5.372-3.572-8.64-3.572c-3.266,0-6.333,1.268-8.641,3.572l-6.046,6.044
			l-0.706-0.706c-2.304-2.303-5.372-3.571-8.64-3.571c-3.267,0-6.334,1.268-8.641,3.571l-5.342,5.341
			c-4.628,4.631-4.744,12.074-0.374,16.863c-7.067,6.208-14.238,12.469-21.198,18.507c-2.226-7.554-8.673-13.295-16.602-14.516
			v-29.57c0-15.906-12.943-28.847-28.854-28.847h-9.316c-3.337-3.912-8.291-6.404-13.824-6.404h-36.601
			c-10.023,0-18.177,8.152-18.177,18.173v46.6c-7.828,1.082-14.258,6.565-16.696,13.875c-7.442-6.728-14.847-13.455-21.55-19.571
			c3.784-4.79,3.473-11.781-0.949-16.206l-5.342-5.338c-2.305-2.302-5.373-3.57-8.638-3.57c-3.268,0-6.336,1.269-8.639,3.572
			l-0.706,0.705l-6.051-6.05c-2.305-2.3-5.372-3.566-8.637-3.566c-3.267,0-6.335,1.268-8.64,3.571l-15.351,15.347
			c-2.308,2.305-3.579,5.374-3.579,8.643c0,3.27,1.271,6.339,3.576,8.641l20.024,20.016c2.304,2.306,5.373,3.575,8.642,3.575
			c0.58,0,1.149-0.054,1.713-0.132l69.369,69.344v95.301l-13.249,58.808c-0.57-0.417-1.206-0.762-1.905-1.011
			c-3.617-1.289-7.242-2.706-10.773-4.211c-3.81-1.624-8.216,0.148-9.84,3.959c-1.624,3.81,0.148,8.216,3.959,9.84
			c3.809,1.623,7.717,3.151,11.617,4.542c0.833,0.297,1.682,0.438,2.519,0.438c0.476,0,0.943-0.06,1.404-0.149l-12.254,54.393
			h-13.683c-6.92,0-12.551,5.629-12.551,12.549v12.552c0,6.919,5.63,12.549,12.551,12.549h47.487c6.92,0,12.551-5.629,12.551-12.549
			v-15.06l3.321-14.743c0.911-4.041-1.627-8.055-5.668-8.965c-4.04-0.915-8.055,1.627-8.965,5.668l-1.802,7.998h-17.864
			l27.379-121.537h79.367l32.733,121.537h-18.179l-28.068-104.216c-0.882-3.274-3.852-5.549-7.242-5.549h-37.4
			c-3.507,0-6.546,2.43-7.316,5.852l-13.723,60.916c-0.911,4.041,1.627,8.055,5.668,8.965c4.043,0.913,8.055-1.627,8.965-5.668
			l0.961-4.266c0.745,0.329,1.552,0.548,2.409,0.619c4.111,0.339,8.291,0.56,12.424,0.657c0.06,0.001,0.119,0.002,0.178,0.002
			c4.061,0,7.4-3.244,7.495-7.325c0.097-4.141-3.183-7.576-7.323-7.673c-3.838-0.089-7.721-0.294-11.539-0.61
			c-0.139-0.011-0.275-0.009-0.412-0.013l8.212-36.454h25.653l9.514,35.322c-0.227,0.01-0.454,0.026-0.684,0.057
			c-3.795,0.513-7.661,0.918-11.489,1.206c-4.131,0.309-7.229,3.909-6.918,8.039c0.295,3.94,3.583,6.94,7.471,6.94
			c0.187,0,0.378-0.007,0.568-0.021c4.124-0.309,8.288-0.746,12.376-1.298c0.893-0.121,1.725-0.402,2.479-0.798l14.938,55.463
			v14.958c0,6.919,5.631,12.549,12.552,12.549h47.486c6.921,0,12.551-5.629,12.551-12.549v-12.552c0-6.92-5.63-12.549-12.551-12.549
			h-13.52l-15.639-58.067c0.251,0.026,0.502,0.056,0.757,0.056c0.962,0,1.939-0.186,2.883-0.579
			c3.806-1.586,7.616-3.311,11.326-5.126c3.721-1.82,5.262-6.312,3.441-10.033c-1.82-3.72-6.31-5.262-10.033-3.441
			c-3.441,1.684-6.975,3.283-10.506,4.754c-0.548,0.228-1.048,0.52-1.509,0.853l-15.071-55.958V317c0-4.142-3.357-7.5-7.5-7.5
			s-7.5,3.358-7.5,7.5v20.813h-77.519v-88.478c0-1.99-0.791-3.897-2.198-5.304l-69.82-69.795l9.674-9.67
			c7.226,6.59,20.215,18.408,33.262,30.137c31.135,27.991,39.413,34.984,43.183,36.73c7.686,4.606,16.479,7.266,25.737,7.266
			c15.36,0,29.454-7.292,39.3-18.715c6.531-5.351,15.662-13.079,28.64-24.251c13.334-11.479,26.556-23.043,33.853-29.447
			l9.776,9.772l-71.691,71.667c-1.407,1.407-2.197,3.315-2.197,5.304V281c0,4.142,3.357,7.5,7.5,7.5s7.5-3.358,7.5-7.5v-24.863
			l71.855-71.831c0.123,0.003,0.244,0.018,0.367,0.018c3.267,0,6.335-1.268,8.642-3.572l20.023-20.019
			c2.307-2.304,3.576-5.372,3.576-8.642C418.093,148.823,416.823,145.754,414.518,143.45z M208.941,489.35V497h-42.589v-7.65
			H208.941z M359.05,489.35V497h-42.589v-7.65H359.05z M135.028,167.085l-16.093-16.086l11.421-11.418l9.384,9.382
			c2.929,2.927,7.677,2.928,10.605,0l4.044-4.042l1.407,1.406L135.028,167.085z M204.802,179.953c0-2.047,1.112-3.836,2.762-4.808
			v7.041c0,0.876,0.025,1.746,0.065,2.613C205.943,183.837,204.802,182.027,204.802,179.953z M225.74,109.814h36.601
			c1.722,0,3.177,1.453,3.177,3.173v6.521c-1.5-0.087-3.018-0.145-4.568-0.145c-15.81,0-29.045,4.613-38.386,12.661v-19.037h-0.001
			C222.563,111.267,224.018,109.814,225.74,109.814z M260.949,223.699c-20.448,0-38.386-19.398-38.386-41.513v-16.053
			c0-23.424,19.829-31.771,38.386-31.771s38.386,8.346,38.386,31.771v16.053h0C299.335,204.301,281.397,223.699,260.949,223.699z
			 M299.336,132.023L299.336,132.023c-5.159-4.444-11.505-7.841-18.818-9.99v-5.815h4.964c7.639,0,13.854,6.211,13.854,13.847
			V132.023z M314.274,184.607c0.034-0.804,0.061-1.61,0.061-2.421v-6.85c1.477,1.006,2.449,2.7,2.449,4.616
			C316.784,181.895,315.785,183.607,314.274,184.607z M385.851,168.179l-20.767-20.76l1.407-1.407l4.043,4.042
			c2.93,2.928,7.676,2.928,10.605,0l9.383-9.38l11.422,11.417L385.851,168.179z"/>
	</g>
</g>
<g>
	<g>
		<path d="M267.357,183.334v-3.991c0-4.142-3.357-7.5-7.5-7.5c-4.142,0.001-7.5,3.359-7.5,7.501v11.169c0,4.142,3.358,7.5,7.5,7.5
			h5.321c4.143,0,7.5-3.358,7.5-7.5C272.678,187.129,270.437,184.268,267.357,183.334z"/>
	</g>
</g>
<g>
	<g>
		<path d="M237.403,165.188c-4.142,0-7.5,3.358-7.5,7.5v6.857c0,4.142,3.358,7.5,7.5,7.5c4.142,0,7.5-3.358,7.5-7.5v-6.857
			C244.903,168.546,241.545,165.188,237.403,165.188z"/>
	</g>
</g>
<g>
	<g>
		<path d="M284.182,165.188c-4.143,0-7.5,3.358-7.5,7.5v6.857c0,4.142,3.358,7.5,7.5,7.5c4.143,0,7.5-3.358,7.5-7.5v-6.857
			C291.682,168.546,288.325,165.188,284.182,165.188z"/>
	</g>
</g>
<g>
	<g>
		<path d="M278.993,202.303c-2.929-2.93-7.678-2.931-10.606-0.002c-4.189,4.186-11.001,4.186-15.186,0
			c-2.93-2.928-7.677-2.928-10.607,0.001c-2.928,2.93-2.928,7.678,0.001,10.607c5.018,5.016,11.607,7.523,18.198,7.523
			c6.589,0,13.181-2.508,18.197-7.523C281.92,209.981,281.921,205.232,278.993,202.303z"/>
	</g>
</g>
<g>
	<g>
		<path d="M288.019,251.919c-3.873-3.852-9.021-5.974-14.493-5.974c-4.838,0-9.419,1.657-13.088,4.699
			c-3.674-3.042-8.255-4.699-13.089-4.699c-5.474,0-10.621,2.122-14.491,5.972c-3.883,3.86-6.021,9.001-6.021,14.475
			s2.138,10.614,6.02,14.472l20.373,20.265c1.911,1.894,4.444,2.936,7.133,2.936c2.684,0,5.212-1.038,7.114-2.92l20.54-20.281
			c3.886-3.863,6.025-9.003,6.025-14.472C294.042,260.924,291.903,255.785,288.019,251.919z M277.46,270.209l-17.085,16.869
			l-16.941-16.851c-1.044-1.038-1.596-2.364-1.596-3.835c0-1.472,0.552-2.798,1.599-3.839c1.057-1.052,2.41-1.608,3.913-1.608
			c1.502,0,2.857,0.557,3.915,1.609l3.884,3.863c2.925,2.909,7.651,2.91,10.576,0.002l3.891-3.867
			c1.057-1.051,2.408-1.607,3.911-1.607c1.503,0,2.856,0.557,3.914,1.608c1.048,1.043,1.602,2.37,1.602,3.839
			C279.043,267.859,278.489,269.186,277.46,270.209z"/>
	</g>
</g>
<g>
	<g>
		<path d="M428.038,238.51c-0.459-1.146-1.133-2.169-2.02-3.06c-0.877-0.874-1.905-1.549-3.062-2.009
			c-6.753-2.683-13.852-4.043-21.097-4.043c-15.24,0-29.574,5.938-40.36,16.72c-15.115,15.108-20.438,37.231-14.131,57.367
			l-4.427,4.425c-2.928,2.928-2.928,7.677-0.001,10.607c1.465,1.465,3.385,2.198,5.305,2.198c1.919,0,3.838-0.732,5.303-2.196
			l4.44-4.439c5.51,1.724,11.212,2.61,17.012,2.61c15.242,0,29.575-5.938,40.361-16.721
			C431.492,283.843,436.47,259.725,428.038,238.51z M404.756,289.361c-7.952,7.951-18.52,12.329-29.756,12.329
			c-1.47,0-2.931-0.083-4.382-0.235l30.869-30.857c2.929-2.928,2.93-7.677,0.002-10.607c-2.929-2.93-7.677-2.931-10.608-0.002
			l-30.875,30.863c-1.304-12.422,2.975-25.007,12.098-34.125c7.953-7.951,18.52-12.329,29.756-12.329
			c4.479,0,8.885,0.706,13.126,2.101C419.918,261.512,416.035,278.086,404.756,289.361z"/>
	</g>
</g>
<g>
	<g>
		<path d="M213.71,44.716c-7.718-3.361-13.711-6.603-18.663-10.398c-0.046-0.681-0.183-1.367-0.427-2.041
			c-1.097-3.034-3.949-4.919-6.997-4.942c-4.655-5.385-8.408-12.03-12.32-21.011C173.63,2.483,169.841,0,165.649,0
			c-4.191,0-7.98,2.482-9.654,6.325c-9.145,20.995-17.401,29.247-38.402,38.39c-3.846,1.672-6.332,5.462-6.332,9.656
			c0,4.192,2.485,7.982,6.329,9.654c1.031,0.449,2.022,0.895,2.993,1.341c-0.967,0.826-1.941,1.647-2.888,2.487
			c-3.098,2.75-3.38,7.49-0.631,10.588c1.482,1.67,3.542,2.521,5.612,2.521c1.77,0,3.547-0.623,4.976-1.891
			c2.26-2.005,4.598-3.957,6.957-5.861c9.487,6.738,15.238,15.091,21.386,29.205c1.674,3.842,5.463,6.324,9.654,6.324
			c4.191,0,7.98-2.482,9.654-6.324c9.146-20.995,17.402-29.248,38.405-38.39c3.844-1.672,6.328-5.462,6.328-9.655
			C220.036,50.178,217.552,46.388,213.71,44.716z M165.65,87.724c-8.196-15.963-17.395-25.16-33.362-33.354
			c15.966-8.194,25.166-17.391,33.362-33.354c8.196,15.962,17.396,25.159,33.364,33.354
			C183.047,62.563,173.847,71.761,165.65,87.724z"/>
	</g>
</g>
<g>
	<g>
		<path d="M159.813,264.198c-8.983-4.217-13.008-8.24-17.224-17.217c-1.721-3.668-5.452-6.038-9.504-6.038
			c-4.051,0-7.782,2.37-9.504,6.037c-4.217,8.979-8.241,13.002-17.224,17.218c-3.668,1.722-6.038,5.453-6.038,9.505
			s2.37,7.783,6.038,9.505c8.983,4.216,13.008,8.239,17.224,17.215c1.722,3.669,5.452,6.039,9.504,6.039s7.783-2.37,9.504-6.036
			c4.216-8.979,8.24-13.002,17.223-17.218c3.669-1.722,6.039-5.453,6.039-9.505C165.851,269.652,163.482,265.922,159.813,264.198z
			 M133.085,286.593c-3.464-5.377-7.516-9.427-12.895-12.891c5.379-3.463,9.43-7.514,12.894-12.891
			c3.465,5.377,7.516,9.428,12.895,12.891C140.599,277.166,136.549,281.215,133.085,286.593z"/>
	</g>
</g>
<g>
</g>
<g>
</g>
<g>
</g>
<g>
</g>
<g>
</g>
<g>
</g>
<g>
</g>
<g>
</g>
<g>
</g>
<g>
</g>
<g>
</g>
<g>
</g>
<g>
</g>
<g>
</g>
<g>
</g>
</svg>
