<?xml version="1.0" encoding="iso-8859-1"?>
<!-- Generator: Adobe Illustrator 19.0.0, SVG Export Plug-In . SVG Version: 6.00 Build 0)  -->
<svg xmlns="http://www.w3.org/2000/svg" 
	xmlns:xlink="http://www.w3.org/1999/xlink" version="1.1" id="Capa_1" x="0px" y="0px" viewBox="0 0 510 510" style="enable-background:new 0 0 510 510;" xml:space="preserve" width="512" height="512">
	<g>
		<path d="M0,468.75h510v-60H0V468.75z M15,423.75h15v15h15v-15h15v15h15v-15h15v15h15v-15h300v15h15v-15h15v15h15v-15h15v15h15v-15   h15v30H15V423.75z"/>
		<polygon points="480,393.75 480,138.75 457.5,138.75 457.5,153.75 465,153.75 465,393.75  "/>
		<polygon points="45,153.75 397.5,153.75 397.5,138.75 30,138.75 30,393.75 45,393.75  "/>
		<path d="M316.481,275.626c-2.753-1.204-5.79-1.876-8.981-1.876c-6.171,0-11.769,2.499-15.838,6.536l-44.389-18.368   c0.147-1.036,0.227-2.093,0.227-3.169c0-12.407-10.094-22.5-22.5-22.5s-22.5,10.093-22.5,22.5c0,2.655,0.465,5.202,1.313,7.568   l-54.847,42.311c-3.84-3.05-8.692-4.879-13.966-4.879c-12.406,0-22.5,10.093-22.5,22.5s10.094,22.5,22.5,22.5   s22.5-10.093,22.5-22.5c0-1.665-0.187-3.286-0.532-4.849l56.32-43.447c3.414,2.09,7.424,3.296,11.712,3.296   c5.89,0,11.256-2.278,15.271-5.995l44.863,18.564c-0.086,0.799-0.134,1.61-0.134,2.432c0,12.407,10.094,22.5,22.5,22.5   s22.5-10.093,22.5-22.5c0-3.718-0.912-7.226-2.516-10.319L481.106,85.319c2.028,0.602,4.173,0.931,6.394,0.931   c12.406,0,22.5-10.093,22.5-22.5s-10.094-22.5-22.5-22.5S465,51.343,465,63.75c0,4.728,1.469,9.118,3.97,12.743L316.481,275.626z    M135,333.75c-4.136,0-7.5-3.364-7.5-7.5s3.364-7.5,7.5-7.5s7.5,3.364,7.5,7.5S139.136,333.75,135,333.75z M225,266.25   c-4.136,0-7.5-3.364-7.5-7.5s3.364-7.5,7.5-7.5s7.5,3.364,7.5,7.5S229.136,266.25,225,266.25z M307.5,303.75   c-4.136,0-7.5-3.364-7.5-7.5s3.364-7.5,7.5-7.5s7.5,3.364,7.5,7.5S311.636,303.75,307.5,303.75z M487.5,56.25   c4.136,0,7.5,3.364,7.5,7.5s-3.364,7.5-7.5,7.5s-7.5-3.364-7.5-7.5S483.364,56.25,487.5,56.25z"/>
		<polygon points="375,183.75 375,168.75 60,168.75 60,393.75 450,393.75 450,168.75 427.5,168.75 427.5,183.75 435,183.75    435,378.75 75,378.75 75,183.75  "/>
		<rect x="322.5" y="41.25" width="127.5" height="15"/>
		<rect x="322.5" y="71.25" width="45" height="15"/>
		<rect x="382.5" y="71.25" width="37.5" height="15"/>
		<rect x="322.5" y="101.25" width="15" height="15"/>
		<rect x="292.5" y="41.25" width="15" height="15"/>
	</g>
</svg>
