<svg xmlns="http://www.w3.org/2000/svg" width="50" height="50" viewBox="0 0 50 50">
  <g>
    <path d="M45.779 4H4.22A4.231 4.231 0 0 0 0 8.231V42.77A4.231 4.231 0 0 0 4.221 47H45.78A4.231 4.231 0 0 0 50 42.769V8.23A4.231 4.231 0 0 0 45.779 4zM4.22 6.777H45.78c.8.001 1.45.652 1.45 1.454v5.745H2.771V8.231c0-.802.65-1.453 1.45-1.454zM45.78 44.223H4.22c-.8-.001-1.45-.652-1.45-1.454V16.754h44.458v26.015a1.454 1.454 0 0 1-1.45 1.454z"/>
    <path d="M28.157 20.108c-.706-.291-1.522.025-1.825.707l-7.219 16.31c-.196.442-.134.951.164 1.336.298.385.786.587 1.28.53a1.385 1.385 0 0 0 1.112-.808l7.219-16.31c.145-.328.15-.698.012-1.029a1.366 1.366 0 0 0-.743-.736zM16.644 25.404a1.146 1.146 0 0 0-.859-.404c-.322 0-.631.145-.859.404L10 31l4.926 5.596c.307.348.754.485 1.173.357.42-.128.747-.5.86-.976a1.511 1.511 0 0 0-.315-1.333L13.437 31l3.207-3.644A1.48 1.48 0 0 0 17 26.38a1.48 1.48 0 0 0-.356-.976zM33.357 25.404a1.48 1.48 0 0 0-.356.976c0 .366.128.717.356.976L36.564 31l-3.207 3.643a1.511 1.511 0 0 0-.316 1.334c.113.476.44.849.86.976.42.128.867-.009 1.173-.358L40 31l-4.926-5.596a1.146 1.146 0 0 0-.858-.404c-.323 0-.632.145-.86.404z"/>
  </g>
</svg>
