;<svg
  height="512"
  viewBox="0 0 64 64"
  width="512"
  xmlns="http://www.w3.org/2000/svg"
>
  <g id="_25-error" data-name="25-error">
    <path d="m55 24h8v19h-8z" fill="#f06441" />
    <path d="m55 24v2h6v17h2v-19z" fill="#b44b31" />
    <path d="m1 24h8v19h-8z" fill="#f06441" />
    <path d="m3 26h6v-2h-8v19h2z" fill="#b44b31" />
    <path d="m59 30h-4v-2h3v-22.5h2v23.5a1 1 0 0 1 -1 1z" fill="#acabaf" />
    <path d="m9 30h-4a1 1 0 0 1 -1-1v-23.778h2v22.778h3z" fill="#acabaf" />
    <path d="m1 54h62v9h-62z" fill="#72b0a5" />
    <path d="m3 56h60v-2h-62v9h2z" fill="#56847c" />
    <path d="m18 49h28v5h-28z" fill="#acabaf" />
    <path d="m18 49h28v2h-28z" fill="#818083" />
    <path d="m18 13h28v5h-28z" fill="#acabaf" />
    <path d="m20 15h26v-2h-28v5h2z" fill="#818083" />
    <path d="m9 18h46v31h-46z" fill="#72b0a5" />
    <path d="m11 20h44v-2h-46v31h2z" fill="#56847c" />
    <path d="m16 38h32v8h-32z" fill="#ffbb4e" />
    <path d="m18 40h30v-2h-32v8h2z" fill="#eaa034" />
    <circle cx="59" cy="4" fill="#5292d2" r="3" />
    <circle cx="5" cy="4" fill="#5292d2" r="3" />
    <g fill="#25507a">
      <path d="m22 38h2v8h-2z" />
      <path d="m28 38h2v8h-2z" />
      <path d="m34 38h2v8h-2z" />
      <path d="m40 38h2v8h-2z" />
    </g>
    <path
      d="m26.657 24.757-1.414-1.414-4.243 4.243-4.243-4.242-1.414 1.414 4.243 4.242-4.243 4.243 1.414 1.414 4.243-4.243 4.243 4.243 1.414-1.414-4.243-4.243z"
      fill="#d8584d"
    />
    <path
      d="m48.657 24.757-1.414-1.414-4.243 4.243-4.243-4.242-1.414 1.414 4.243 4.242-4.243 4.243 1.414 1.414 4.243-4.243 4.243 4.243 1.414-1.414-4.243-4.243z"
      fill="#d8584d"
    />
    <path d="m4 58h46v2h-46z" fill="#5292d2" />
    <path d="m52 58h8v2h-8z" fill="#5292d2" />
    <path
      d="m30.6 10.8-1.2-1.6 2.933-2.2-2.933-2.2a1 1 0 0 1 0-1.6l4-3 1.2 1.6-2.933 2.2 2.933 2.2a1 1 0 0 1 0 1.6z"
      fill="#d8584d"
    />
    <path
      d="m41.6 10.8-1.2-1.6 2.933-2.2-2.933-2.2a1 1 0 0 1 0-1.6l4-3 1.2 1.6-2.933 2.2 2.933 2.2a1 1 0 0 1 0 1.6z"
      fill="#d8584d"
    />
    <path
      d="m19.6 10.8-1.2-1.6 2.933-2.2-2.933-2.2a1 1 0 0 1 0-1.6l4-3 1.2 1.6-2.933 2.2 2.933 2.2a1 1 0 0 1 0 1.6z"
      fill="#d8584d"
    />
  </g>
</svg>
