<svg xmlns="http://www.w3.org/2000/svg" width="50" height="50" viewBox="0 0 50 50">
  <g>
    <path d="M47.02 47.042H33.032c6.582-3.2 11.052-9.936 11.052-17.625 0-8.548-5.587-16.135-13.708-18.685V3.958h3.917a.98.98 0 0 0 0-1.958H14.708a.98.98 0 1 0 0 1.958h3.917v6.774C10.503 13.282 4.917 20.87 4.917 29.417c0 7.667 4.448 14.415 11.052 17.625H1.979a.98.98 0 0 0 0 1.958h45.042a.98.98 0 0 0 0-1.958zM15.5 38.418a.98.98 0 0 0-1.386 0l-2.743 2.743a17.554 17.554 0 0 1-4.468-10.765h3.889a.98.98 0 0 0 0-1.959H6.903a17.643 17.643 0 0 1 4.465-10.767l2.746 2.746A.98.98 0 0 0 15.5 19.03l-2.748-2.748a17.512 17.512 0 0 1 10.77-4.462v3.887a.98.98 0 1 0 1.958 0v-3.887c4.11.226 7.86 1.851 10.77 4.462L33.5 19.031a.98.98 0 0 0 1.385 1.385l2.746-2.746a17.644 17.644 0 0 1 4.465 10.767h-3.889a.98.98 0 0 0 0 1.959h3.89a17.554 17.554 0 0 1-4.469 10.765l-2.743-2.743a.98.98 0 0 0-1.385 1.384l2.744 2.744a17.555 17.555 0 0 1-10.766 4.468v-3.889a.98.98 0 0 0-1.958 0v3.89a17.554 17.554 0 0 1-10.766-4.469l2.744-2.744a.98.98 0 0 0 0-1.384zm12.917-34.46v6.269a19.748 19.748 0 0 0-7.834 0V3.958h7.834z"/>
    <path d="M24.062 32.25l5.875 2.938a.98.98 0 1 0 .876-1.751l-5.334-2.667v-7.228a.98.98 0 0 0-1.958 0v7.833c0 .37.21.71.541.876z"/>
  </g>
</svg>
